<?xml version="1.0" encoding="UTF-8"?>
<svg xmlns="http://www.w3.org/2000/svg" xmlns:xlink="http://www.w3.org/1999/xlink" width="16px" height="16px" viewBox="0 0 16 16" version="1.1">
<g id="surface1">
<path style=" stroke:none;fill-rule:nonzero;fill:rgb(0%,0%,0%);fill-opacity:1;" d="M 11.167969 4.113281 C 11.183594 4.128906 11.203125 4.140625 11.21875 4.15625 C 11.242188 4.175781 11.242188 4.175781 11.269531 4.199219 C 12.246094 5.050781 12.902344 6.257812 13 7.5625 C 13.03125 8.203125 12.988281 8.820312 12.8125 9.4375 C 12.863281 9.441406 12.863281 9.441406 12.914062 9.445312 C 13.722656 9.527344 14.386719 9.808594 15 10.34375 C 15.019531 10.359375 15.039062 10.375 15.058594 10.394531 C 15.585938 10.886719 15.964844 11.652344 16.003906 12.375 C 16.019531 13.070312 15.96875 13.628906 15.65625 14.25 C 15.640625 14.28125 15.621094 14.316406 15.605469 14.351562 C 15.199219 15.089844 14.488281 15.644531 13.683594 15.882812 C 13.449219 15.949219 13.21875 16.003906 12.972656 16.003906 C 12.9375 16.003906 12.902344 16.003906 12.863281 16.003906 C 12.824219 16.003906 12.785156 16.003906 12.746094 16.003906 C 12.703125 16.003906 12.660156 16.003906 12.617188 16.003906 C 12.503906 16.003906 12.386719 16.003906 12.269531 16.003906 C 12.144531 16.003906 12.019531 16.007812 11.894531 16.007812 C 11.59375 16.007812 11.289062 16.007812 10.988281 16.007812 C 10.84375 16.007812 10.703125 16.007812 10.558594 16.007812 C 10.085938 16.007812 9.609375 16.007812 9.136719 16.007812 C 9.011719 16.007812 8.890625 16.007812 8.765625 16.007812 C 8.738281 16.007812 8.707031 16.007812 8.675781 16.007812 C 8.179688 16.007812 7.683594 16.011719 7.191406 16.011719 C 6.679688 16.011719 6.171875 16.011719 5.664062 16.011719 C 5.378906 16.011719 5.09375 16.011719 4.808594 16.015625 C 4.5625 16.015625 4.320312 16.015625 4.078125 16.015625 C 3.953125 16.015625 3.832031 16.015625 3.707031 16.015625 C 2.746094 16.019531 1.917969 15.890625 1.15625 15.25 C 1.121094 15.21875 1.121094 15.21875 1.082031 15.1875 C 0.488281 14.6875 0.101562 13.957031 0 13.1875 C -0.046875 12.472656 0.0195312 11.855469 0.34375 11.21875 C 0.359375 11.1875 0.378906 11.152344 0.394531 11.117188 C 0.804688 10.367188 1.503906 9.851562 2.304688 9.585938 C 2.59375 9.503906 2.886719 9.464844 3.1875 9.4375 C 3.179688 9.40625 3.179688 9.40625 3.171875 9.375 C 3.152344 9.28125 3.132812 9.1875 3.113281 9.09375 C 3.105469 9.0625 3.097656 9.03125 3.089844 9 C 2.800781 7.6875 3.109375 6.34375 3.8125 5.21875 C 4.554688 4.109375 5.71875 3.355469 7.019531 3.078125 C 8.460938 2.796875 10.042969 3.152344 11.167969 4.113281 Z M 5.40625 4.90625 C 5.375 4.933594 5.34375 4.957031 5.3125 4.984375 C 4.582031 5.613281 4.050781 6.59375 3.972656 7.558594 C 3.945312 8.023438 3.953125 8.484375 4.0625 8.9375 C 4.074219 8.980469 4.074219 8.980469 4.082031 9.023438 C 4.160156 9.382812 4.160156 9.382812 4.371094 9.667969 C 4.46875 9.707031 4.554688 9.730469 4.65625 9.75 C 4.71875 9.78125 4.71875 9.78125 4.765625 9.808594 C 4.839844 9.851562 4.839844 9.851562 4.902344 9.824219 C 4.984375 9.769531 5.050781 9.707031 5.125 9.636719 C 6.03125 8.800781 7.152344 8.519531 8.359375 8.558594 C 9.410156 8.605469 10.351562 9.128906 11.09375 9.84375 C 11.121094 9.835938 11.148438 9.824219 11.175781 9.816406 C 11.242188 9.792969 11.3125 9.773438 11.382812 9.753906 C 11.589844 9.691406 11.589844 9.691406 11.746094 9.546875 C 11.785156 9.449219 11.816406 9.351562 11.84375 9.25 C 11.855469 9.214844 11.867188 9.179688 11.878906 9.144531 C 12.195312 8.128906 12.054688 7.03125 11.570312 6.09375 C 11.433594 5.84375 11.277344 5.621094 11.09375 5.40625 C 11.066406 5.375 11.042969 5.34375 11.015625 5.3125 C 10.386719 4.582031 9.40625 4.050781 8.441406 3.972656 C 7.328125 3.90625 6.269531 4.167969 5.40625 4.90625 Z M 5.4375 10.6875 C 5.410156 10.722656 5.382812 10.753906 5.355469 10.789062 C 5.269531 10.890625 5.214844 10.925781 5.085938 10.953125 C 4.855469 10.96875 4.714844 10.890625 4.527344 10.769531 C 3.988281 10.425781 3.375 10.339844 2.75 10.46875 C 2.136719 10.632812 1.617188 10.988281 1.28125 11.53125 C 0.96875 12.089844 0.867188 12.714844 1.015625 13.34375 C 1.210938 13.953125 1.609375 14.480469 2.179688 14.785156 C 2.664062 15.027344 3.144531 15.066406 3.679688 15.066406 C 3.71875 15.066406 3.757812 15.066406 3.796875 15.066406 C 3.902344 15.066406 4.007812 15.066406 4.113281 15.066406 C 4.230469 15.066406 4.34375 15.066406 4.457031 15.066406 C 4.683594 15.066406 4.90625 15.066406 5.128906 15.066406 C 5.3125 15.066406 5.492188 15.066406 5.675781 15.066406 C 6.195312 15.066406 6.710938 15.066406 7.226562 15.066406 C 7.257812 15.066406 7.285156 15.066406 7.3125 15.066406 C 7.339844 15.066406 7.367188 15.066406 7.398438 15.066406 C 7.847656 15.066406 8.300781 15.070312 8.75 15.070312 C 9.214844 15.070312 9.679688 15.070312 10.144531 15.070312 C 10.40625 15.070312 10.664062 15.070312 10.925781 15.070312 C 11.148438 15.070312 11.371094 15.070312 11.589844 15.070312 C 11.703125 15.070312 11.816406 15.070312 11.929688 15.070312 C 12.882812 15.074219 13.722656 15.019531 14.4375 14.3125 C 14.917969 13.78125 15.070312 13.160156 15.039062 12.460938 C 14.992188 11.871094 14.65625 11.339844 14.222656 10.949219 C 13.707031 10.542969 13.082031 10.359375 12.429688 10.421875 C 12.050781 10.46875 11.730469 10.605469 11.414062 10.808594 C 11.25 10.914062 11.117188 10.96875 10.921875 10.960938 C 10.734375 10.90625 10.609375 10.773438 10.488281 10.628906 C 10.457031 10.597656 10.425781 10.5625 10.394531 10.53125 C 10.347656 10.476562 10.300781 10.425781 10.257812 10.375 C 9.75 9.835938 8.941406 9.511719 8.210938 9.492188 C 8.144531 9.488281 8.074219 9.488281 8.007812 9.488281 C 7.953125 9.492188 7.953125 9.492188 7.898438 9.492188 C 6.914062 9.503906 6.089844 9.972656 5.4375 10.6875 Z M 5.4375 10.6875 "/>
<path style=" stroke:none;fill-rule:nonzero;fill:rgb(0%,0%,0%);fill-opacity:1;" d="M 4.484375 1.039062 C 4.640625 1.140625 4.71875 1.308594 4.804688 1.464844 C 4.847656 1.539062 4.890625 1.613281 4.933594 1.6875 C 4.996094 1.792969 5.058594 1.894531 5.117188 2 C 5.128906 2.023438 5.144531 2.042969 5.15625 2.066406 C 5.230469 2.207031 5.238281 2.34375 5.21875 2.5 C 5.148438 2.636719 5.070312 2.734375 4.9375 2.8125 C 4.757812 2.867188 4.628906 2.847656 4.464844 2.761719 C 4.328125 2.65625 4.246094 2.507812 4.160156 2.359375 C 4.148438 2.339844 4.140625 2.320312 4.128906 2.300781 C 4.105469 2.261719 4.082031 2.222656 4.058594 2.183594 C 4.023438 2.121094 3.992188 2.058594 3.957031 2 C 3.71875 1.582031 3.71875 1.582031 3.75 1.34375 C 3.800781 1.210938 3.875 1.105469 4 1.03125 C 4.167969 0.976562 4.320312 0.980469 4.484375 1.039062 Z M 4.484375 1.039062 "/>
<path style=" stroke:none;fill-rule:nonzero;fill:rgb(0%,0%,0%);fill-opacity:1;" d="M 12.007812 1.039062 C 12.132812 1.121094 12.203125 1.203125 12.25 1.34375 C 12.289062 1.609375 12.15625 1.808594 12.03125 2.03125 C 12.007812 2.070312 12.007812 2.070312 11.988281 2.109375 C 11.9375 2.195312 11.890625 2.277344 11.839844 2.363281 C 11.824219 2.390625 11.808594 2.417969 11.792969 2.445312 C 11.6875 2.617188 11.597656 2.734375 11.414062 2.820312 C 11.257812 2.855469 11.132812 2.855469 11 2.773438 C 10.882812 2.675781 10.800781 2.589844 10.769531 2.4375 C 10.757812 2.207031 10.855469 2.039062 10.96875 1.84375 C 10.984375 1.816406 11 1.789062 11.015625 1.761719 C 11.066406 1.667969 11.121094 1.578125 11.171875 1.484375 C 11.191406 1.453125 11.207031 1.425781 11.226562 1.394531 C 11.414062 1.074219 11.636719 0.902344 12.007812 1.039062 Z M 12.007812 1.039062 "/>
<path style=" stroke:none;fill-rule:nonzero;fill:rgb(0%,0%,0%);fill-opacity:1;" d="M 14.71875 3.769531 C 14.859375 3.84375 14.949219 3.941406 15 4.09375 C 15.027344 4.25 15.019531 4.402344 14.925781 4.539062 C 14.816406 4.65625 14.671875 4.726562 14.535156 4.804688 C 14.460938 4.847656 14.386719 4.890625 14.3125 4.933594 C 14.207031 4.996094 14.105469 5.058594 14 5.117188 C 13.96875 5.136719 13.96875 5.136719 13.933594 5.15625 C 13.800781 5.226562 13.675781 5.234375 13.53125 5.21875 C 13.378906 5.164062 13.265625 5.082031 13.1875 4.9375 C 13.140625 4.789062 13.140625 4.664062 13.207031 4.523438 C 13.300781 4.347656 13.472656 4.253906 13.640625 4.160156 C 13.660156 4.148438 13.679688 4.140625 13.699219 4.128906 C 13.738281 4.105469 13.777344 4.082031 13.816406 4.058594 C 13.878906 4.023438 13.941406 3.992188 14 3.957031 C 14.472656 3.6875 14.472656 3.6875 14.71875 3.769531 Z M 14.71875 3.769531 "/>
<path style=" stroke:none;fill-rule:nonzero;fill:rgb(0%,0%,0%);fill-opacity:1;" d="M 1.789062 3.835938 C 1.871094 3.878906 1.949219 3.921875 2.03125 3.96875 C 2.070312 3.992188 2.070312 3.992188 2.109375 4.011719 C 2.195312 4.0625 2.277344 4.109375 2.363281 4.160156 C 2.390625 4.175781 2.417969 4.191406 2.445312 4.207031 C 2.617188 4.3125 2.769531 4.414062 2.824219 4.617188 C 2.851562 4.757812 2.847656 4.875 2.78125 5 C 2.660156 5.140625 2.546875 5.207031 2.359375 5.234375 C 2.164062 5.226562 2.011719 5.125 1.84375 5.03125 C 1.816406 5.015625 1.789062 5 1.761719 4.984375 C 1.667969 4.933594 1.578125 4.878906 1.484375 4.828125 C 1.453125 4.808594 1.425781 4.792969 1.394531 4.773438 C 1.210938 4.667969 1.070312 4.582031 1 4.375 C 0.980469 4.195312 0.992188 4.058594 1.09375 3.90625 C 1.320312 3.699219 1.527344 3.707031 1.789062 3.835938 Z M 1.789062 3.835938 "/>
<path style=" stroke:none;fill-rule:nonzero;fill:rgb(0%,0%,0%);fill-opacity:1;" d="M 14.652344 7.519531 C 14.683594 7.515625 14.714844 7.515625 14.742188 7.515625 C 14.808594 7.515625 14.871094 7.515625 14.933594 7.515625 C 15.027344 7.515625 15.125 7.515625 15.222656 7.515625 C 15.28125 7.515625 15.34375 7.515625 15.40625 7.515625 C 15.433594 7.515625 15.460938 7.515625 15.492188 7.515625 C 15.667969 7.515625 15.769531 7.539062 15.90625 7.65625 C 16.03125 7.820312 16.023438 7.988281 16 8.1875 C 15.933594 8.332031 15.863281 8.402344 15.71875 8.46875 C 15.617188 8.484375 15.515625 8.484375 15.410156 8.484375 C 15.378906 8.484375 15.351562 8.484375 15.320312 8.484375 C 15.257812 8.484375 15.195312 8.484375 15.132812 8.484375 C 15.035156 8.484375 14.941406 8.484375 14.84375 8.488281 C 14.78125 8.488281 14.722656 8.488281 14.660156 8.488281 C 14.617188 8.488281 14.617188 8.488281 14.574219 8.488281 C 14.375 8.488281 14.277344 8.445312 14.125 8.3125 C 14.042969 8.199219 14.023438 8.070312 14.03125 7.933594 C 14.070312 7.777344 14.125 7.675781 14.25 7.574219 C 14.386719 7.511719 14.507812 7.515625 14.652344 7.519531 Z M 14.652344 7.519531 "/>
<path style=" stroke:none;fill-rule:nonzero;fill:rgb(0%,0%,0%);fill-opacity:1;" d="M 0.589844 7.515625 C 0.621094 7.515625 0.648438 7.515625 0.679688 7.515625 C 0.742188 7.515625 0.804688 7.515625 0.867188 7.515625 C 0.964844 7.515625 1.058594 7.515625 1.15625 7.511719 C 1.21875 7.511719 1.277344 7.511719 1.339844 7.511719 C 1.367188 7.511719 1.398438 7.511719 1.425781 7.511719 C 1.625 7.511719 1.722656 7.554688 1.875 7.6875 C 1.957031 7.800781 1.976562 7.929688 1.96875 8.066406 C 1.929688 8.222656 1.875 8.324219 1.75 8.425781 C 1.613281 8.488281 1.492188 8.484375 1.347656 8.480469 C 1.316406 8.484375 1.285156 8.484375 1.257812 8.484375 C 1.191406 8.484375 1.128906 8.484375 1.066406 8.484375 C 0.972656 8.484375 0.875 8.484375 0.777344 8.484375 C 0.71875 8.484375 0.65625 8.484375 0.59375 8.484375 C 0.566406 8.484375 0.539062 8.484375 0.507812 8.484375 C 0.332031 8.484375 0.230469 8.460938 0.09375 8.34375 C -0.03125 8.179688 -0.0234375 8.011719 0 7.8125 C 0.128906 7.539062 0.316406 7.515625 0.589844 7.515625 Z M 0.589844 7.515625 "/>
<path style=" stroke:none;fill-rule:nonzero;fill:rgb(0%,0%,0%);fill-opacity:1;" d="M 8.1875 0 C 8.332031 0.0664062 8.402344 0.136719 8.46875 0.28125 C 8.484375 0.382812 8.484375 0.488281 8.480469 0.589844 C 8.484375 0.621094 8.484375 0.652344 8.484375 0.679688 C 8.484375 0.746094 8.484375 0.808594 8.484375 0.871094 C 8.484375 0.964844 8.484375 1.0625 8.484375 1.160156 C 8.484375 1.21875 8.484375 1.28125 8.484375 1.34375 C 8.484375 1.386719 8.484375 1.386719 8.484375 1.429688 C 8.484375 1.605469 8.460938 1.707031 8.34375 1.84375 C 8.222656 1.941406 8.089844 1.972656 7.9375 1.96875 C 7.785156 1.941406 7.710938 1.902344 7.605469 1.78125 C 7.507812 1.640625 7.507812 1.511719 7.511719 1.339844 C 7.511719 1.3125 7.511719 1.28125 7.511719 1.25 C 7.511719 1.1875 7.511719 1.125 7.511719 1.0625 C 7.511719 0.96875 7.511719 0.871094 7.511719 0.777344 C 7.511719 0.714844 7.511719 0.652344 7.511719 0.59375 C 7.511719 0.5625 7.511719 0.535156 7.511719 0.507812 C 7.515625 0.332031 7.539062 0.230469 7.65625 0.09375 C 7.820312 -0.03125 7.988281 -0.0234375 8.1875 0 Z M 8.1875 0 "/>
</g>
</svg>
