<svg width="21" height="24" viewBox="0 0 21 24" fill="none" xmlns="http://www.w3.org/2000/svg">
<g id="Apple svg" clip-path="url(#clip0_318_133089)">
<g id="Group">
<path id="Vector" d="M19.4425 8.18824C17.8501 9.17647 16.8666 10.8706 16.8666 12.7529C16.8666 14.8706 18.1311 16.8 20.0514 17.6C19.6767 18.8235 19.1147 19.9529 18.4121 20.9882C17.3818 22.4471 16.3045 23.9529 14.7121 23.9529C13.1198 23.9529 12.6514 23.0118 10.778 23.0118C8.95142 23.0118 8.29572 24 6.797 24C5.29827 24 4.26789 22.6353 3.09701 20.9412C1.55145 18.5882 0.661581 15.8588 0.614746 12.9882C0.614746 8.32941 3.6122 5.83529 6.60965 5.83529C8.20205 5.83529 9.51344 6.87059 10.497 6.87059C11.4337 6.87059 12.9324 5.78824 14.7121 5.78824C16.5856 5.74118 18.3653 6.63529 19.4425 8.18824ZM13.8691 3.81176C14.6653 2.87059 15.0868 1.69412 15.1337 0.470588C15.1337 0.329412 15.1337 0.141176 15.0868 0C13.7286 0.141176 12.4641 0.8 11.5742 1.83529C10.778 2.72941 10.3096 3.85882 10.2628 5.08235C10.2628 5.22353 10.2628 5.36471 10.3096 5.50588C10.4033 5.50588 10.5438 5.55294 10.6375 5.55294C11.902 5.45882 13.0729 4.8 13.8691 3.81176Z" fill="black"/>
</g>
</g>
<defs>
<clipPath id="clip0_318_133089">
<rect width="19.4366" height="24" fill="white" transform="translate(0.614746)"/>
</clipPath>
</defs>
</svg>
