<svg width="25" height="24" viewBox="0 0 25 24" fill="none" xmlns="http://www.w3.org/2000/svg">
<g id="Google svg">
<path id="Vector" d="M23.2265 12.25C23.2265 11.47 23.1565 10.72 23.0265 10H12.6665V14.255H18.5865C18.3315 15.63 17.5565 16.795 16.3915 17.575V20.335H19.9465C22.0265 18.42 23.2265 15.6 23.2265 12.25Z" fill="#4285F4"/>
<path id="Vector_2" d="M12.6664 23C15.6364 23 18.1264 22.015 19.9464 20.335L16.3914 17.575C15.4064 18.235 14.1464 18.625 12.6664 18.625C9.80143 18.625 7.37643 16.69 6.51143 14.09H2.83643V16.94C4.64643 20.535 8.36643 23 12.6664 23Z" fill="#34A853"/>
<path id="Vector_3" d="M6.5115 14.09C6.2915 13.43 6.1665 12.725 6.1665 12C6.1665 11.275 6.2915 10.57 6.5115 9.91V7.06H2.8365C2.0665 8.59286 1.66583 10.2846 1.6665 12C1.6665 13.775 2.0915 15.455 2.8365 16.94L6.5115 14.09Z" fill="#FBBC05"/>
<path id="Vector_4" d="M12.6664 5.375C14.2814 5.375 15.7314 5.93 16.8714 7.02L20.0264 3.865C18.1214 2.09 15.6314 1 12.6664 1C8.36643 1 4.64643 3.465 2.83643 7.06L6.51143 9.91C7.37643 7.31 9.80143 5.375 12.6664 5.375Z" fill="#EA4335"/>
</g>
</svg>
